<svg width="133" height="146" viewBox="0 0 133 146" fill="none" xmlns="http://www.w3.org/2000/svg">
<path d="M1 -37L15.3774 4.29687C21.0787 20.673 34.5678 33.1297 51.3451 37.5118L63.4026 40.6611C80.865 45.2222 94.7134 58.5117 99.9897 75.7713L109.751 107.702C116.435 129.566 136.616 144.5 159.479 144.5H188" stroke="white" stroke-width="2"/>
<path d="M17 -37L31.3774 4.29687C37.0787 20.673 50.5678 33.1297 67.3451 37.5118L79.4026 40.6611C96.865 45.2222 110.713 58.5117 115.99 75.7713L125.751 107.702C132.435 129.566 152.616 144.5 175.479 144.5H204" stroke="white" stroke-width="2"/>
<path d="M35 -37L49.3774 4.29687C55.0787 20.673 68.5678 33.1297 85.3451 37.5118L97.4026 40.6611C114.865 45.2222 128.713 58.5117 133.99 75.7713L143.751 107.702C150.435 129.566 170.616 144.5 193.479 144.5H222" stroke="white" stroke-width="2"/>
</svg>
