<svg width="151" height="158" viewBox="0 0 151 158" fill="none" xmlns="http://www.w3.org/2000/svg">
<path d="M1 -25L15.3774 16.2969C21.0787 32.673 34.5678 45.1297 51.3451 49.5118L63.4026 52.6611C80.865 57.2222 94.7134 70.5117 99.9897 87.7713L109.751 119.702C116.435 141.566 136.616 156.5 159.479 156.5H188" stroke="white" stroke-width="2"/>
<path d="M17 -25L31.3774 16.2969C37.0787 32.673 50.5678 45.1297 67.3451 49.5118L79.4026 52.6611C96.865 57.2222 110.713 70.5117 115.99 87.7713L125.751 119.702C132.435 141.566 152.616 156.5 175.479 156.5H204" stroke="white" stroke-width="2"/>
<path d="M35 -25L49.3774 16.2969C55.0787 32.673 68.5678 45.1297 85.3451 49.5118L97.4026 52.6611C114.865 57.2222 128.713 70.5117 133.99 87.7713L143.751 119.702C150.435 141.566 170.616 156.5 193.479 156.5H222" stroke="white" stroke-width="2"/>
</svg>
